<?xml version="1.0" encoding="utf-8"?>
<!-- Generator: Adobe Illustrator 19.1.0, SVG Export Plug-In . SVG Version: 6.00 Build 0)  -->
<svg version="1.1" id="Objects" xmlns="http://www.w3.org/2000/svg" xmlns:xlink="http://www.w3.org/1999/xlink" x="0px" y="0px"
	 viewBox="0 0 146 146" style="enable-background:new 0 0 146 146;" xml:space="preserve">
<style type="text/css">
	.st0{fill:url(#SVGID_1_);}
	.st1{fill:url(#SVGID_2_);}
</style>
<g>
	<linearGradient id="SVGID_1_" gradientUnits="userSpaceOnUse" x1="72.9998" y1="19.7063" x2="72.9998" y2="143.7667">
		<stop  offset="0" style="stop-color:#41547E"/>
		<stop  offset="1" style="stop-color:#2A3342"/>
	</linearGradient>
	<path class="st0" d="M125.564,118.117c-0.87-2.936-1.99-5.152-3.429-5.846c-3.646-1.76-14.997-4.284-22.566-8.79
		c-2.266-3.883-5.784-6.366-7.457-7.442l-3.355-7.232c0,0,4.315-6.359,7.19-17.684c0,0,2.794,2.898,3.791-2.485
		c0.887-4.791,1.59-10.182-1.358-9.624c-0.008-0.043-0.018-0.086-0.03-0.129c0.292-0.186,0.531-0.488,0.622-0.932
		c0.158-0.773-0.281-1.747-0.449-2.509c-0.081-0.364-0.235-0.666-0.427-0.932c-0.007-0.251-0.009-0.501-0.026-0.756
		c0.189-0.101,0.352-0.261,0.448-0.465c0.717-1.523,0.412-3.108-0.315-4.677c0.228-0.092,0.367-0.296,0.424-0.521
		c0.185-0.196,0.303-0.465,0.343-0.75c0.079-0.57-0.357-0.952-0.789-1.22c0.008-0.006,0.015-0.009,0.023-0.016
		c0.528-0.465,0.54-1.467-0.124-1.836c-0.004-0.002-0.004-0.001-0.008-0.003c-0.088-0.205-0.277-0.338-0.483-0.44
		c-0.001-0.022-0.005-0.044-0.006-0.065c0.382-0.347,0.456-0.947,0.101-1.358c-0.121-0.139-0.258-0.241-0.4-0.335
		c-0.05-0.147-0.104-0.29-0.17-0.422c0.309-0.296,0.482-0.734,0.405-1.193c-0.005-0.023-0.009-0.046-0.012-0.07
		c-0.085-0.509-0.569-1.007-1.106-1.046c-0.02-0.015-0.026-0.019-0.06-0.044c-0.058-0.042-0.174-0.173-0.226-0.225
		c-0.065-0.066-0.131-0.131-0.197-0.194c0.434-0.133,0.786-0.491,0.835-1.067c0.147-1.704-1.289-3.222-2.444-4.294
		c-0.386-0.359-0.763-0.632-1.193-0.826c-0.002-0.002-0.004-0.005-0.006-0.008c0.832,0.019,1.366-1.065,1.071-1.821
		c-0.123-0.315-0.316-0.562-0.536-0.782c0.553-0.172,0.999-0.69,0.827-1.319c-0.321-1.169-1.015-1.887-1.918-2.329
		c-0.449-1.553-1.507-1.952-2.775-1.957c-0.019-0.121-0.037-0.243-0.056-0.364c-0.067-0.432-0.427-0.871-0.854-0.989
		c-0.567-0.156-1.178-0.186-1.804-0.151c0.218-0.554,0.091-1.197-0.663-1.388c-0.744-0.189-1.481-0.21-2.212-0.143
		c-0.028-0.499-0.392-0.984-0.992-1.085c-0.94-0.159-1.897,0.01-2.828,0.329c-0.318-0.532-0.974-0.908-1.716-0.657
		c-0.578,0.196-1.12,0.44-1.645,0.705c-0.098-0.139-0.233-0.259-0.408-0.337c-1.11-0.493-2.27,0.344-3.241,1.191
		c-0.077-0.28-0.231-0.537-0.435-0.722c0.107-0.111,0.191-0.251,0.239-0.456c0.088-0.38-0.287-0.891-0.709-0.627
		c-0.35,0.22-1.484,0.266-1.973,0.445c-1.477,0.538-2.829,1.454-4.082,2.384c-0.024,0.018-0.046,0.036-0.069,0.055
		c-0.09-0.039-0.194-0.058-0.304-0.048c-0.006,0-0.011,0.002-0.017,0.002c0.334-0.311,0.676-0.618,1.032-0.92
		c0.527-0.448,0.052-1.176-0.549-1.124c-2.18,0.191-3.651,2.434-4.819,4.024c-0.075,0.102-0.143,0.211-0.216,0.316
		c-0.078,0.078-0.155,0.155-0.232,0.235c0.166-0.342,0.333-0.683,0.482-1.035c0.323-0.762-0.833-1.298-1.274-0.631
		c-0.049,0.075-0.093,0.152-0.142,0.228c-1.01,0.377-2.001,1.686-2.625,2.712c-0.548,0.557-1.022,1.186-1.4,1.709
		c-0.583,0.804-1.122,1.687-1.578,2.612c-0.057,0.056-0.114,0.112-0.169,0.17c-0.279,0.088-0.511,0.319-0.554,0.606
		c-0.112,0.129-0.224,0.257-0.334,0.382c-1.245,1.407-2.354,3.409-2.184,5.334c0.002,0.027,0.016,0.044,0.019,0.069
		c-0.45,0.19-0.776,0.541-0.998,1.003c-0.118,0.245-0.105,0.501-0.016,0.735c-1.112,1.052-2.059,2.913-1.383,4.4
		c0.026,0.055,0.075,0.09,0.111,0.137c-0.19,0.243-0.239,0.515-0.197,0.853c0.01,0.086,0.039,0.165,0.076,0.238
		c-0.145,0.205-0.282,0.417-0.399,0.635c-0.673,1.254-0.943,2.882-0.336,4.197c-0.483,0.371-0.808,0.833-0.843,1.49
		c-0.026,0.486,0.265,0.789,0.623,0.909c-0.889,1.578-1.292,3.361-0.372,4.605c-0.011,0.015-0.026,0.03-0.038,0.045
		c-0.501,0.621-0.614,1.585-0.347,2.311c0.018,0.049,0.049,0.082,0.073,0.124c-2.677-0.229-1.998,4.995-1.136,9.654
		c0.997,5.382,3.787,2.485,3.787,2.485c2.875,11.325,7.191,17.684,7.191,17.684l-3.35,7.232c-1.672,1.076-5.177,3.559-7.443,7.442
		c-7.569,4.505-18.892,7.029-22.538,8.79c-1.489,0.719-2.627,3.072-3.5,6.161c12.271,15.43,31.193,25.335,52.44,25.335
		C94.267,143.767,113.301,133.727,125.564,118.117z"/>
	<linearGradient id="SVGID_2_" gradientUnits="userSpaceOnUse" x1="73" y1="0" x2="73" y2="146">
		<stop  offset="0" style="stop-color:#41547E"/>
		<stop  offset="1" style="stop-color:#2A3342"/>
	</linearGradient>
	<path class="st1" d="M73,146c-40.252,0-73-32.747-73-73C0,32.747,32.747,0,73,0c40.253,0,73,32.747,73,73
		C146,113.253,113.253,146,73,146z M73,3.883C34.889,3.883,3.883,34.889,3.883,73S34.889,142.117,73,142.117
		S142.117,111.111,142.117,73S111.111,3.883,73,3.883z"/>
</g>
</svg>
